<svg xmlns="http://www.w3.org/2000/svg" viewBox="0 0 182.2 44" width="182.2" height="44">
  <!-- PassaGene prod-dark: Dark — para fundos escuros -->
  
  <!-- Circle Icon (viewBox 120 scaled to 44px) -->
  <svg x="0" y="0" width="44" height="44" viewBox="0 0 120 120">
    <defs>
      <clipPath id="CL">
        <circle cx="60" cy="60" r="60"/>
      </clipPath>
    </defs>
    <circle cx="60" cy="60" r="60" fill="#064e3b"/>
    <g clip-path="url(#CL)">
      <g transform="translate(60,60) rotate(-45) scale(1.25) translate(-43.6,-27)">
        <circle cx="6.24" cy="51.10" r="2.90" fill="#ffffff"/>
        <circle cx="18.71" cy="48.07" r="3.09" fill="#ffffff"/>
        <circle cx="31.18" cy="39.78" r="3.62" fill="#ffffff"/>
        <circle cx="43.65" cy="28.45" r="4.35" fill="#ffffff"/>
        <circle cx="56.12" cy="35.43" r="3.62" fill="#09C972"/>
        <circle cx="68.59" cy="42.66" r="3.09" fill="#09C972"/>
        <circle cx="81.06" cy="45.30" r="2.90" fill="#09C972"/>
        <circle cx="6.24" cy="5.80" r="5.80" fill="#09C972"/>
        <circle cx="18.71" cy="8.45" r="5.60" fill="#09C972"/>
        <circle cx="31.18" cy="15.67" r="5.07" fill="#09C972"/>
        <circle cx="43.65" cy="25.55" r="4.35" fill="#09C972"/>
        <circle cx="56.12" cy="17.12" r="5.07" fill="#ffffff"/>
        <circle cx="68.59" cy="8.83" r="5.60" fill="#ffffff"/>
        <circle cx="81.06" cy="5.80" r="5.80" fill="#ffffff"/>
      </g>
    </g>
  </svg>
  
  <!-- Wordmark: Outfit 800 "Passa" + 400 "Gene", 25.52px -->
  <g transform="translate(52.00,5.67)">
    <path d="M 4.796875 18.957031 L 4.796875 15.847656 L 8.671875 15.847656 C 9.171875 15.847656 9.625 15.75 10.03125 15.550781 C 10.4375 15.34375 10.757812 15.046875 11 14.660156 C 11.238281 14.265625 11.359375 13.785156 11.359375 13.222656 C 11.359375 12.683594 11.238281 12.21875 11 11.832031 C 10.757812 11.4375 10.4375 11.136719 10.03125 10.925781 C 9.625 10.71875 9.171875 10.613281 8.671875 10.613281 L 4.796875 10.613281 L 4.796875 7.503906 L 9.265625 7.503906 C 10.398438 7.503906 11.425781 7.734375 12.34375 8.191406 C 13.269531 8.652344 14 9.3125 14.53125 10.175781 C 15.0625 11.03125 15.328125 12.046875 15.328125 13.222656 C 15.328125 14.402344 15.0625 15.421875 14.53125 16.285156 C 14 17.140625 13.269531 17.800781 12.34375 18.269531 C 11.425781 18.730469 10.398438 18.957031 9.265625 18.957031 Z M 1.734375 25.519531 L 1.734375 7.503906 L 5.734375 7.503906 L 5.734375 25.519531 Z M 22.589844 25.769531 C 21.441406 25.769531 20.421875 25.496094 19.527344 24.941406 C 18.640625 24.378906 17.9375 23.613281 17.417969 22.644531 C 16.894531 21.667969 16.636719 20.558594 16.636719 19.316406 C 16.636719 18.078125 16.894531 16.972656 17.417969 16.003906 C 17.9375 15.035156 18.640625 14.269531 19.527344 13.707031 C 20.421875 13.144531 21.441406 12.863281 22.589844 12.863281 C 23.421875 12.863281 24.171875 13.027344 24.839844 13.347656 C 25.515625 13.671875 26.0625 14.121094 26.480469 14.691406 C 26.90625 15.253906 27.144531 15.90625 27.199219 16.644531 L 27.199219 22.003906 C 27.144531 22.734375 26.910156 23.386719 26.496094 23.957031 C 26.078125 24.519531 25.53125 24.964844 24.855469 25.285156 C 24.175781 25.605469 23.421875 25.769531 22.589844 25.769531 Z M 23.371094 22.253906 C 24.203125 22.253906 24.875 21.980469 25.386719 21.425781 C 25.894531 20.875 26.152344 20.171875 26.152344 19.316406 C 26.152344 18.746094 26.035156 18.238281 25.808594 17.800781 C 25.578125 17.355469 25.253906 17.003906 24.839844 16.753906 C 24.421875 16.503906 23.941406 16.378906 23.402344 16.378906 C 22.859375 16.378906 22.378906 16.503906 21.964844 16.753906 C 21.546875 17.003906 21.214844 17.355469 20.964844 17.800781 C 20.714844 18.238281 20.589844 18.746094 20.589844 19.316406 C 20.589844 19.878906 20.707031 20.386719 20.949219 20.832031 C 21.1875 21.269531 21.519531 21.621094 21.949219 21.878906 C 22.375 22.128906 22.847656 22.253906 23.371094 22.253906 Z M 26.011719 25.519531 L 26.011719 22.175781 L 26.589844 19.160156 L 26.011719 16.160156 L 26.011719 13.113281 L 29.824219 13.113281 L 29.824219 25.519531 Z M 37.101562 25.832031 C 36.371094 25.832031 35.652344 25.738281 34.945312 25.550781 C 34.234375 25.363281 33.578125 25.097656 32.976562 24.753906 C 32.382812 24.402344 31.871094 23.996094 31.445312 23.535156 L 33.664062 21.285156 C 34.070312 21.722656 34.554688 22.066406 35.117188 22.316406 C 35.679688 22.566406 36.289062 22.691406 36.945312 22.691406 C 37.414062 22.691406 37.765625 22.625 38.007812 22.488281 C 38.257812 22.355469 38.382812 22.167969 38.382812 21.925781 C 38.382812 21.613281 38.230469 21.378906 37.929688 21.222656 C 37.636719 21.058594 37.261719 20.910156 36.804688 20.785156 C 36.34375 20.660156 35.859375 20.519531 35.351562 20.363281 C 34.839844 20.207031 34.351562 19.996094 33.882812 19.722656 C 33.421875 19.453125 33.046875 19.078125 32.757812 18.597656 C 32.476562 18.109375 32.335938 17.488281 32.335938 16.738281 C 32.335938 15.9375 32.539062 15.246094 32.945312 14.660156 C 33.351562 14.078125 33.929688 13.621094 34.679688 13.285156 C 35.429688 12.941406 36.304688 12.769531 37.304688 12.769531 C 38.367188 12.769531 39.339844 12.953125 40.226562 13.316406 C 41.121094 13.683594 41.851562 14.21875 42.414062 14.925781 L 40.195312 17.175781 C 39.796875 16.71875 39.355469 16.394531 38.867188 16.207031 C 38.386719 16.019531 37.917969 15.925781 37.460938 15.925781 C 37.023438 15.925781 36.6875 15.988281 36.460938 16.113281 C 36.242188 16.238281 36.132812 16.421875 36.132812 16.660156 C 36.132812 16.921875 36.277344 17.128906 36.570312 17.285156 C 36.859375 17.433594 37.234375 17.566406 37.695312 17.691406 C 38.152344 17.808594 38.636719 17.953125 39.148438 18.128906 C 39.65625 18.296875 40.140625 18.527344 40.601562 18.816406 C 41.058594 19.097656 41.433594 19.484375 41.726562 19.972656 C 42.015625 20.453125 42.164062 21.082031 42.164062 21.863281 C 42.164062 23.074219 41.703125 24.035156 40.789062 24.753906 C 39.882812 25.472656 38.652344 25.832031 37.101562 25.832031 Z M 48.789062 25.832031 C 48.058594 25.832031 47.339844 25.738281 46.632812 25.550781 C 45.921875 25.363281 45.265625 25.097656 44.664062 24.753906 C 44.070312 24.402344 43.558594 23.996094 43.132812 23.535156 L 45.351562 21.285156 C 45.757812 21.722656 46.242188 22.066406 46.804688 22.316406 C 47.367188 22.566406 47.976562 22.691406 48.632812 22.691406 C 49.101562 22.691406 49.453125 22.625 49.695312 22.488281 C 49.945312 22.355469 50.070312 22.167969 50.070312 21.925781 C 50.070312 21.613281 49.917969 21.378906 49.617188 21.222656 C 49.324219 21.058594 48.949219 20.910156 48.492188 20.785156 C 48.03125 20.660156 47.546875 20.519531 47.039062 20.363281 C 46.527344 20.207031 46.039062 19.996094 45.570312 19.722656 C 45.109375 19.453125 44.734375 19.078125 44.445312 18.597656 C 44.164062 18.109375 44.023438 17.488281 44.023438 16.738281 C 44.023438 15.9375 44.226562 15.246094 44.632812 14.660156 C 45.039062 14.078125 45.617188 13.621094 46.367188 13.285156 C 47.117188 12.941406 47.992188 12.769531 48.992188 12.769531 C 50.054688 12.769531 51.027344 12.953125 51.914062 13.316406 C 52.808594 13.683594 53.539062 14.21875 54.101562 14.925781 L 51.882812 17.175781 C 51.484375 16.71875 51.042969 16.394531 50.554688 16.207031 C 50.074219 16.019531 49.605469 15.925781 49.148438 15.925781 C 48.710938 15.925781 48.375 15.988281 48.148438 16.113281 C 47.929688 16.238281 47.820312 16.421875 47.820312 16.660156 C 47.820312 16.921875 47.964844 17.128906 48.257812 17.285156 C 48.546875 17.433594 48.921875 17.566406 49.382812 17.691406 C 49.839844 17.808594 50.324219 17.953125 50.835938 18.128906 C 51.34375 18.296875 51.828125 18.527344 52.289062 18.816406 C 52.746094 19.097656 53.121094 19.484375 53.414062 19.972656 C 53.703125 20.453125 53.851562 21.082031 53.851562 21.863281 C 53.851562 23.074219 53.390625 24.035156 52.476562 24.753906 C 51.570312 25.472656 50.339844 25.832031 48.789062 25.832031 Z M 61.148438 25.769531 C 60 25.769531 58.980469 25.496094 58.085938 24.941406 C 57.199219 24.378906 56.496094 23.613281 55.976562 22.644531 C 55.453125 21.667969 55.195312 20.558594 55.195312 19.316406 C 55.195312 18.078125 55.453125 16.972656 55.976562 16.003906 C 56.496094 15.035156 57.199219 14.269531 58.085938 13.707031 C 58.980469 13.144531 60 12.863281 61.148438 12.863281 C 61.980469 12.863281 62.730469 13.027344 63.398438 13.347656 C 64.074219 13.671875 64.621094 14.121094 65.039062 14.691406 C 65.464844 15.253906 65.703125 15.90625 65.757812 16.644531 L 65.757812 22.003906 C 65.703125 22.734375 65.46875 23.386719 65.054688 23.957031 C 64.636719 24.519531 64.089844 24.964844 63.414062 25.285156 C 62.734375 25.605469 61.980469 25.769531 61.148438 25.769531 Z M 61.929688 22.253906 C 62.761719 22.253906 63.433594 21.980469 63.945312 21.425781 C 64.453125 20.875 64.710938 20.171875 64.710938 19.316406 C 64.710938 18.746094 64.59375 18.238281 64.367188 17.800781 C 64.136719 17.355469 63.8125 17.003906 63.398438 16.753906 C 62.980469 16.503906 62.5 16.378906 61.960938 16.378906 C 61.417969 16.378906 60.9375 16.503906 60.523438 16.753906 C 60.105469 17.003906 59.773438 17.355469 59.523438 17.800781 C 59.273438 18.238281 59.148438 18.746094 59.148438 19.316406 C 59.148438 19.878906 59.265625 20.386719 59.507812 20.832031 C 59.746094 21.269531 60.078125 21.621094 60.507812 21.878906 C 60.933594 22.128906 61.40625 22.253906 61.929688 22.253906 Z M 64.570312 25.519531 L 64.570312 22.175781 L 65.148438 19.160156 L 64.570312 16.160156 L 64.570312 13.113281 L 68.382812 13.113281 L 68.382812 25.519531 Z M 69.773438 25.519531 " fill="#ffffff"/>
    <path d="M 79.242188 25.769531 C 77.992188 25.769531 76.824219 25.539062 75.742188 25.082031 C 74.667969 24.613281 73.726562 23.964844 72.914062 23.128906 C 72.109375 22.285156 71.480469 21.3125 71.023438 20.207031 C 70.5625 19.105469 70.335938 17.917969 70.335938 16.644531 C 70.335938 15.363281 70.5625 14.175781 71.023438 13.082031 C 71.480469 11.988281 72.117188 11.027344 72.929688 10.191406 C 73.75 9.359375 74.710938 8.714844 75.804688 8.253906 C 76.898438 7.785156 78.089844 7.550781 79.382812 7.550781 C 80.796875 7.550781 82.101562 7.828125 83.289062 8.378906 C 84.484375 8.921875 85.480469 9.703125 86.273438 10.722656 L 84.617188 12.378906 C 84.054688 11.566406 83.3125 10.941406 82.398438 10.503906 C 81.480469 10.066406 80.476562 9.847656 79.382812 9.847656 C 78.089844 9.847656 76.945312 10.140625 75.945312 10.722656 C 74.953125 11.296875 74.183594 12.09375 73.632812 13.113281 C 73.078125 14.136719 72.804688 15.3125 72.804688 16.644531 C 72.804688 17.988281 73.085938 19.171875 73.648438 20.191406 C 74.210938 21.214844 74.964844 22.015625 75.914062 22.597656 C 76.871094 23.171875 77.960938 23.457031 79.179688 23.457031 C 80.429688 23.457031 81.507812 23.21875 82.414062 22.738281 C 83.320312 22.261719 84.015625 21.558594 84.507812 20.628906 C 85.007812 19.703125 85.257812 18.566406 85.257812 17.222656 L 86.710938 18.269531 L 79.054688 18.269531 L 79.054688 16.082031 L 87.726562 16.082031 L 87.726562 16.441406 C 87.726562 18.496094 87.367188 20.214844 86.648438 21.597656 C 85.929688 22.984375 84.921875 24.027344 83.632812 24.722656 C 82.351562 25.421875 80.886719 25.769531 79.242188 25.769531 Z M 96.15625 25.769531 C 94.945312 25.769531 93.859375 25.496094 92.890625 24.941406 C 91.921875 24.390625 91.15625 23.640625 90.59375 22.691406 C 90.03125 21.734375 89.75 20.652344 89.75 19.441406 C 89.75 18.253906 90.023438 17.1875 90.578125 16.238281 C 91.128906 15.28125 91.878906 14.527344 92.828125 13.972656 C 93.773438 13.421875 94.832031 13.144531 96 13.144531 C 97.125 13.144531 98.113281 13.402344 98.96875 13.910156 C 99.832031 14.421875 100.503906 15.128906 100.984375 16.035156 C 101.472656 16.933594 101.71875 17.949219 101.71875 19.082031 C 101.71875 19.261719 101.707031 19.449219 101.6875 19.644531 C 101.675781 19.832031 101.644531 20.058594 101.59375 20.316406 L 91.359375 20.316406 L 91.359375 18.394531 L 100.359375 18.394531 L 99.53125 19.144531 C 99.53125 18.324219 99.382812 17.628906 99.09375 17.066406 C 98.800781 16.496094 98.390625 16.050781 97.859375 15.738281 C 97.335938 15.425781 96.703125 15.269531 95.953125 15.269531 C 95.171875 15.269531 94.484375 15.441406 93.890625 15.785156 C 93.296875 16.121094 92.832031 16.59375 92.5 17.207031 C 92.175781 17.8125 92.015625 18.53125 92.015625 19.363281 C 92.015625 20.21875 92.1875 20.96875 92.53125 21.613281 C 92.875 22.25 93.359375 22.746094 93.984375 23.097656 C 94.617188 23.441406 95.34375 23.613281 96.15625 23.613281 C 96.832031 23.613281 97.457031 23.496094 98.03125 23.253906 C 98.601562 23.015625 99.09375 22.65625 99.5 22.175781 L 100.984375 23.675781 C 100.398438 24.363281 99.6875 24.886719 98.84375 25.238281 C 98 25.589844 97.101562 25.769531 96.15625 25.769531 Z M 112.789062 25.519531 L 112.789062 18.457031 C 112.789062 17.53125 112.496094 16.769531 111.914062 16.175781 C 111.339844 15.582031 110.59375 15.285156 109.679688 15.285156 C 109.0625 15.285156 108.515625 15.421875 108.039062 15.691406 C 107.570312 15.964844 107.199219 16.339844 106.929688 16.816406 C 106.65625 17.296875 106.523438 17.84375 106.523438 18.457031 L 105.570312 17.910156 C 105.570312 16.996094 105.773438 16.183594 106.179688 15.472656 C 106.59375 14.753906 107.167969 14.1875 107.898438 13.769531 C 108.625 13.355469 109.449219 13.144531 110.367188 13.144531 C 111.292969 13.144531 112.105469 13.375 112.804688 13.832031 C 113.511719 14.292969 114.070312 14.890625 114.476562 15.628906 C 114.882812 16.371094 115.085938 17.15625 115.085938 17.988281 L 115.085938 25.519531 Z M 104.226562 25.519531 L 104.226562 13.394531 L 106.523438 13.394531 L 106.523438 25.519531 Z M 123.820312 25.769531 C 122.609375 25.769531 121.523438 25.496094 120.554688 24.941406 C 119.585938 24.390625 118.820312 23.640625 118.257812 22.691406 C 117.695312 21.734375 117.414062 20.652344 117.414062 19.441406 C 117.414062 18.253906 117.6875 17.1875 118.242188 16.238281 C 118.792969 15.28125 119.542969 14.527344 120.492188 13.972656 C 121.4375 13.421875 122.496094 13.144531 123.664062 13.144531 C 124.789062 13.144531 125.777344 13.402344 126.632812 13.910156 C 127.496094 14.421875 128.167969 15.128906 128.648438 16.035156 C 129.136719 16.933594 129.382812 17.949219 129.382812 19.082031 C 129.382812 19.261719 129.371094 19.449219 129.351562 19.644531 C 129.339844 19.832031 129.308594 20.058594 129.257812 20.316406 L 119.023438 20.316406 L 119.023438 18.394531 L 128.023438 18.394531 L 127.195312 19.144531 C 127.195312 18.324219 127.046875 17.628906 126.757812 17.066406 C 126.464844 16.496094 126.054688 16.050781 125.523438 15.738281 C 125 15.425781 124.367188 15.269531 123.617188 15.269531 C 122.835938 15.269531 122.148438 15.441406 121.554688 15.785156 C 120.960938 16.121094 120.496094 16.59375 120.164062 17.207031 C 119.839844 17.8125 119.679688 18.53125 119.679688 19.363281 C 119.679688 20.21875 119.851562 20.96875 120.195312 21.613281 C 120.539062 22.25 121.023438 22.746094 121.648438 23.097656 C 122.28125 23.441406 123.007812 23.613281 123.820312 23.613281 C 124.496094 23.613281 125.121094 23.496094 125.695312 23.253906 C 126.265625 23.015625 126.757812 22.65625 127.164062 22.175781 L 128.648438 23.675781 C 128.0625 24.363281 127.351562 24.886719 126.507812 25.238281 C 125.664062 25.589844 124.765625 25.769531 123.820312 25.769531 Z M 130.203125 25.519531 " fill="#09C972"/>
  </g>
</svg>