<svg xmlns="http://www.w3.org/2000/svg" viewBox="0 0 217 52" width="217" height="52">
  <!-- v1-base: Base Forte -->
  <rect x="1" y="1" width="215" height="50" rx="26" fill="#09C972"/>
  <g transform="translate(26.0,26.0) rotate(-45) scale(0.93) translate(-22.3,-13.8)">
    <circle cx="3.19" cy="26.12" r="1.48" fill="#dcfce7"/>
    <circle cx="9.56" cy="24.57" r="1.58" fill="#dcfce7"/>
    <circle cx="15.94" cy="20.33" r="1.85" fill="#dcfce7"/>
    <circle cx="22.31" cy="14.54" r="2.22" fill="#dcfce7"/>
    <circle cx="28.68" cy="18.11" r="1.85" fill="#064e3b"/>
    <circle cx="35.06" cy="21.80" r="1.58" fill="#064e3b"/>
    <circle cx="41.43" cy="23.15" r="1.48" fill="#064e3b"/>
    <circle cx="3.19" cy="2.96" r="2.96" fill="#064e3b"/>
    <circle cx="9.56" cy="4.32" r="2.86" fill="#064e3b"/>
    <circle cx="15.94" cy="8.01" r="2.59" fill="#064e3b"/>
    <circle cx="22.31" cy="13.06" r="2.22" fill="#064e3b"/>
    <circle cx="28.68" cy="8.75" r="2.59" fill="#dcfce7"/>
    <circle cx="35.06" cy="4.52" r="2.86" fill="#dcfce7"/>
    <circle cx="41.43" cy="2.96" r="2.96" fill="#dcfce7"/>
  </g>
  <g transform="translate(55.0,8.1)">
    <path d="M 5.265625 20.796875 L 5.265625 17.390625 L 9.515625 17.390625 C 10.054688 17.390625 10.550781 17.28125 11 17.0625 C 11.445312 16.835938 11.800781 16.507812 12.0625 16.078125 C 12.320312 15.640625 12.453125 15.117188 12.453125 14.5 C 12.453125 13.90625 12.320312 13.398438 12.0625 12.96875 C 11.800781 12.53125 11.445312 12.203125 11 11.984375 C 10.550781 11.757812 10.054688 11.640625 9.515625 11.640625 L 5.265625 11.640625 L 5.265625 8.234375 L 10.15625 8.234375 C 11.414062 8.234375 12.546875 8.492188 13.546875 9 C 14.554688 9.5 15.351562 10.226562 15.9375 11.171875 C 16.53125 12.109375 16.828125 13.21875 16.828125 14.5 C 16.828125 15.792969 16.53125 16.914062 15.9375 17.859375 C 15.351562 18.796875 14.554688 19.523438 13.546875 20.03125 C 12.546875 20.542969 11.414062 20.796875 10.15625 20.796875 Z M 1.90625 28 L 1.90625 8.234375 L 6.296875 8.234375 L 6.296875 28 Z M 24.789062 28.28125 C 23.527344 28.28125 22.40625 27.976562 21.429688 27.359375 C 20.449219 26.746094 19.671875 25.90625 19.101562 24.84375 C 18.539062 23.773438 18.257812 22.558594 18.257812 21.203125 C 18.257812 19.839844 18.539062 18.625 19.101562 17.5625 C 19.671875 16.492188 20.449219 15.648438 21.429688 15.03125 C 22.40625 14.417969 23.527344 14.109375 24.789062 14.109375 C 25.695312 14.109375 26.515625 14.289062 27.257812 14.640625 C 27.996094 14.996094 28.601562 15.484375 29.070312 16.109375 C 29.539062 16.734375 29.796875 17.449219 29.851562 18.25 L 29.851562 24.140625 C 29.796875 24.945312 29.542969 25.65625 29.085938 26.28125 C 28.625 26.90625 28.023438 27.398438 27.273438 27.75 C 26.523438 28.101562 25.695312 28.28125 24.789062 28.28125 Z M 25.648438 24.421875 C 26.5625 24.421875 27.296875 24.121094 27.851562 23.515625 C 28.414062 22.902344 28.695312 22.132812 28.695312 21.203125 C 28.695312 20.570312 28.570312 20.007812 28.320312 19.515625 C 28.070312 19.027344 27.714844 18.648438 27.257812 18.375 C 26.796875 18.105469 26.273438 17.96875 25.679688 17.96875 C 25.085938 17.96875 24.558594 18.105469 24.101562 18.375 C 23.640625 18.648438 23.277344 19.027344 23.007812 19.515625 C 22.734375 20.007812 22.601562 20.570312 22.601562 21.203125 C 22.601562 21.820312 22.730469 22.371094 22.992188 22.859375 C 23.25 23.339844 23.617188 23.71875 24.085938 24 C 24.554688 24.28125 25.074219 24.421875 25.648438 24.421875 Z M 28.539062 28 L 28.539062 24.328125 L 29.179688 21.03125 L 28.539062 17.71875 L 28.539062 14.390625 L 32.726562 14.390625 L 32.726562 28 Z M 40.710938 28.34375 C 39.90625 28.34375 39.117188 28.238281 38.335938 28.03125 C 37.5625 27.824219 36.84375 27.53125 36.179688 27.15625 C 35.523438 26.773438 34.960938 26.324219 34.492188 25.8125 L 36.929688 23.359375 C 37.375 23.839844 37.90625 24.214844 38.523438 24.484375 C 39.136719 24.757812 39.808594 24.890625 40.539062 24.890625 C 41.046875 24.890625 41.4375 24.820312 41.710938 24.671875 C 41.980469 24.515625 42.117188 24.308594 42.117188 24.046875 C 42.117188 23.714844 41.949219 23.460938 41.617188 23.28125 C 41.292969 23.105469 40.875 22.949219 40.367188 22.8125 C 39.867188 22.667969 39.335938 22.511719 38.773438 22.34375 C 38.21875 22.179688 37.6875 21.949219 37.179688 21.65625 C 36.679688 21.355469 36.265625 20.9375 35.945312 20.40625 C 35.632812 19.867188 35.476562 19.1875 35.476562 18.375 C 35.476562 17.492188 35.699219 16.730469 36.148438 16.09375 C 36.59375 15.449219 37.230469 14.9375 38.054688 14.5625 C 38.875 14.1875 39.835938 14 40.929688 14 C 42.085938 14 43.152344 14.203125 44.132812 14.609375 C 45.121094 15.007812 45.921875 15.59375 46.539062 16.375 L 44.101562 18.84375 C 43.671875 18.34375 43.1875 17.992188 42.648438 17.78125 C 42.117188 17.574219 41.601562 17.46875 41.101562 17.46875 C 40.609375 17.46875 40.246094 17.542969 40.007812 17.6875 C 39.765625 17.824219 39.648438 18.023438 39.648438 18.28125 C 39.648438 18.5625 39.804688 18.789062 40.117188 18.953125 C 40.4375 19.121094 40.851562 19.273438 41.351562 19.40625 C 41.859375 19.53125 42.390625 19.6875 42.945312 19.875 C 43.507812 20.0625 44.039062 20.320312 44.539062 20.640625 C 45.046875 20.953125 45.460938 21.375 45.773438 21.90625 C 46.09375 22.4375 46.257812 23.136719 46.257812 24 C 46.257812 25.324219 45.757812 26.382812 44.757812 27.171875 C 43.757812 27.953125 42.40625 28.34375 40.710938 28.34375 Z M 53.535156 28.34375 C 52.730469 28.34375 51.941406 28.238281 51.160156 28.03125 C 50.386719 27.824219 49.667969 27.53125 49.003906 27.15625 C 48.347656 26.773438 47.785156 26.324219 47.316406 25.8125 L 49.753906 23.359375 C 50.199219 23.839844 50.730469 24.214844 51.347656 24.484375 C 51.960938 24.757812 52.632812 24.890625 53.363281 24.890625 C 53.871094 24.890625 54.261719 24.820312 54.535156 24.671875 C 54.804688 24.515625 54.941406 24.308594 54.941406 24.046875 C 54.941406 23.714844 54.773438 23.460938 54.441406 23.28125 C 54.117188 23.105469 53.699219 22.949219 53.191406 22.8125 C 52.691406 22.667969 52.160156 22.511719 51.597656 22.34375 C 51.042969 22.179688 50.511719 21.949219 50.003906 21.65625 C 49.503906 21.355469 49.089844 20.9375 48.769531 20.40625 C 48.457031 19.867188 48.300781 19.1875 48.300781 18.375 C 48.300781 17.492188 48.523438 16.730469 48.972656 16.09375 C 49.417969 15.449219 50.054688 14.9375 50.878906 14.5625 C 51.699219 14.1875 52.660156 14 53.753906 14 C 54.910156 14 55.976562 14.203125 56.957031 14.609375 C 57.945312 15.007812 58.746094 15.59375 59.363281 16.375 L 56.925781 18.84375 C 56.496094 18.34375 56.011719 17.992188 55.472656 17.78125 C 54.941406 17.574219 54.425781 17.46875 53.925781 17.46875 C 53.433594 17.46875 53.070312 17.542969 52.832031 17.6875 C 52.589844 17.824219 52.472656 18.023438 52.472656 18.28125 C 52.472656 18.5625 52.628906 18.789062 52.941406 18.953125 C 53.261719 19.121094 53.675781 19.273438 54.175781 19.40625 C 54.683594 19.53125 55.214844 19.6875 55.769531 19.875 C 56.332031 20.0625 56.863281 20.320312 57.363281 20.640625 C 57.871094 20.953125 58.285156 21.375 58.597656 21.90625 C 58.917969 22.4375 59.082031 23.136719 59.082031 24 C 59.082031 25.324219 58.582031 26.382812 57.582031 27.171875 C 56.582031 27.953125 55.230469 28.34375 53.535156 28.34375 Z M 67.09375 28.28125 C 65.832031 28.28125 64.710938 27.976562 63.734375 27.359375 C 62.753906 26.746094 61.976562 25.90625 61.40625 24.84375 C 60.84375 23.773438 60.5625 22.558594 60.5625 21.203125 C 60.5625 19.839844 60.84375 18.625 61.40625 17.5625 C 61.976562 16.492188 62.753906 15.648438 63.734375 15.03125 C 64.710938 14.417969 65.832031 14.109375 67.09375 14.109375 C 68 14.109375 68.820312 14.289062 69.5625 14.640625 C 70.300781 14.996094 70.90625 15.484375 71.375 16.109375 C 71.84375 16.734375 72.101562 17.449219 72.15625 18.25 L 72.15625 24.140625 C 72.101562 24.945312 71.847656 25.65625 71.390625 26.28125 C 70.929688 26.90625 70.328125 27.398438 69.578125 27.75 C 68.828125 28.101562 68 28.28125 67.09375 28.28125 Z M 67.953125 24.421875 C 68.867188 24.421875 69.601562 24.121094 70.15625 23.515625 C 70.71875 22.902344 71 22.132812 71 21.203125 C 71 20.570312 70.875 20.007812 70.625 19.515625 C 70.375 19.027344 70.019531 18.648438 69.5625 18.375 C 69.101562 18.105469 68.578125 17.96875 67.984375 17.96875 C 67.390625 17.96875 66.863281 18.105469 66.40625 18.375 C 65.945312 18.648438 65.582031 19.027344 65.3125 19.515625 C 65.039062 20.007812 64.90625 20.570312 64.90625 21.203125 C 64.90625 21.820312 65.035156 22.371094 65.296875 22.859375 C 65.554688 23.339844 65.921875 23.71875 66.390625 24 C 66.859375 24.28125 67.378906 24.421875 67.953125 24.421875 Z M 70.84375 28 L 70.84375 24.328125 L 71.484375 21.03125 L 70.84375 17.71875 L 70.84375 14.390625 L 75.03125 14.390625 L 75.03125 28 Z M 76.550781 28 " fill="#064e3b"/>
    <path d="M 87.644531 28.28125 C 86.277344 28.28125 85.003906 28.023438 83.816406 27.515625 C 82.628906 26.996094 81.589844 26.28125 80.707031 25.375 C 79.820312 24.460938 79.121094 23.398438 78.613281 22.1875 C 78.113281 20.96875 77.863281 19.65625 77.863281 18.25 C 77.863281 16.855469 78.113281 15.558594 78.613281 14.359375 C 79.121094 13.152344 79.824219 12.089844 80.722656 11.171875 C 81.617188 10.257812 82.664062 9.546875 83.863281 9.046875 C 85.070312 8.539062 86.382812 8.28125 87.800781 8.28125 C 89.351562 8.28125 90.777344 8.585938 92.082031 9.1875 C 93.394531 9.78125 94.488281 10.640625 95.363281 11.765625 L 93.550781 13.578125 C 92.933594 12.683594 92.121094 12 91.113281 11.53125 C 90.101562 11.054688 88.996094 10.8125 87.800781 10.8125 C 86.382812 10.8125 85.128906 11.132812 84.035156 11.765625 C 82.949219 12.402344 82.101562 13.28125 81.488281 14.40625 C 80.882812 15.523438 80.582031 16.804688 80.582031 18.25 C 80.582031 19.730469 80.886719 21.03125 81.503906 22.15625 C 82.117188 23.273438 82.945312 24.148438 83.988281 24.78125 C 85.039062 25.417969 86.238281 25.734375 87.582031 25.734375 C 88.945312 25.734375 90.128906 25.476562 91.128906 24.953125 C 92.128906 24.421875 92.898438 23.652344 93.441406 22.640625 C 93.980469 21.621094 94.253906 20.375 94.253906 18.90625 L 95.847656 20.046875 L 87.441406 20.046875 L 87.441406 17.640625 L 96.957031 17.640625 L 96.957031 18.03125 C 96.957031 20.292969 96.558594 22.183594 95.769531 23.703125 C 94.976562 25.226562 93.871094 26.371094 92.457031 27.140625 C 91.050781 27.902344 89.445312 28.28125 87.644531 28.28125 Z M 106.210938 28.28125 C 104.875 28.28125 103.679688 27.980469 102.617188 27.375 C 101.554688 26.761719 100.714844 25.933594 100.101562 24.890625 C 99.484375 23.851562 99.179688 22.667969 99.179688 21.34375 C 99.179688 20.03125 99.480469 18.855469 100.085938 17.8125 C 100.6875 16.761719 101.507812 15.933594 102.539062 15.328125 C 103.578125 14.726562 104.746094 14.421875 106.039062 14.421875 C 107.265625 14.421875 108.351562 14.703125 109.289062 15.265625 C 110.234375 15.820312 110.976562 16.589844 111.507812 17.578125 C 112.039062 18.570312 112.304688 19.6875 112.304688 20.9375 C 112.304688 21.125 112.292969 21.328125 112.273438 21.546875 C 112.261719 21.765625 112.226562 22.011719 112.164062 22.28125 L 100.945312 22.28125 L 100.945312 20.1875 L 110.820312 20.1875 L 109.898438 21 C 109.898438 20.105469 109.734375 19.34375 109.414062 18.71875 C 109.101562 18.09375 108.652344 17.609375 108.070312 17.265625 C 107.496094 16.921875 106.796875 16.75 105.976562 16.75 C 105.121094 16.75 104.367188 16.9375 103.710938 17.3125 C 103.054688 17.679688 102.546875 18.199219 102.195312 18.875 C 101.839844 19.542969 101.664062 20.335938 101.664062 21.25 C 101.664062 22.1875 101.851562 23.007812 102.226562 23.703125 C 102.601562 24.402344 103.132812 24.945312 103.820312 25.328125 C 104.507812 25.714844 105.304688 25.90625 106.210938 25.90625 C 106.949219 25.90625 107.632812 25.777344 108.257812 25.515625 C 108.882812 25.246094 109.417969 24.851562 109.867188 24.328125 L 111.492188 25.984375 C 110.855469 26.734375 110.074219 27.308594 109.148438 27.703125 C 108.230469 28.085938 107.25 28.28125 106.210938 28.28125 Z M 124.453125 28 L 124.453125 20.25 C 124.453125 19.242188 124.132812 18.40625 123.5 17.75 C 122.875 17.09375 122.054688 16.765625 121.046875 16.765625 C 120.367188 16.765625 119.769531 16.917969 119.25 17.21875 C 118.726562 17.523438 118.316406 17.933594 118.015625 18.453125 C 117.722656 18.976562 117.578125 19.574219 117.578125 20.25 L 116.53125 19.65625 C 116.53125 18.648438 116.753906 17.75 117.203125 16.96875 C 117.648438 16.1875 118.273438 15.570312 119.078125 15.109375 C 119.878906 14.652344 120.785156 14.421875 121.796875 14.421875 C 122.804688 14.421875 123.695312 14.679688 124.46875 15.1875 C 125.25 15.6875 125.863281 16.34375 126.3125 17.15625 C 126.757812 17.96875 126.984375 18.828125 126.984375 19.734375 L 126.984375 28 Z M 115.046875 28 L 115.046875 14.703125 L 117.578125 14.703125 L 117.578125 28 Z M 136.5625 28.28125 C 135.226562 28.28125 134.03125 27.980469 132.96875 27.375 C 131.90625 26.761719 131.066406 25.933594 130.453125 24.890625 C 129.835938 23.851562 129.53125 22.667969 129.53125 21.34375 C 129.53125 20.03125 129.832031 18.855469 130.4375 17.8125 C 131.039062 16.761719 131.859375 15.933594 132.890625 15.328125 C 133.929688 14.726562 135.097656 14.421875 136.390625 14.421875 C 137.617188 14.421875 138.703125 14.703125 139.640625 15.265625 C 140.585938 15.820312 141.328125 16.589844 141.859375 17.578125 C 142.390625 18.570312 142.65625 19.6875 142.65625 20.9375 C 142.65625 21.125 142.644531 21.328125 142.625 21.546875 C 142.613281 21.765625 142.578125 22.011719 142.515625 22.28125 L 131.296875 22.28125 L 131.296875 20.1875 L 141.171875 20.1875 L 140.25 21 C 140.25 20.105469 140.085938 19.34375 139.765625 18.71875 C 139.453125 18.09375 139.003906 17.609375 138.421875 17.265625 C 137.847656 16.921875 137.148438 16.75 136.328125 16.75 C 135.472656 16.75 134.71875 16.9375 134.0625 17.3125 C 133.40625 17.679688 132.898438 18.199219 132.546875 18.875 C 132.191406 19.542969 132.015625 20.335938 132.015625 21.25 C 132.015625 22.1875 132.203125 23.007812 132.578125 23.703125 C 132.953125 24.402344 133.484375 24.945312 134.171875 25.328125 C 134.859375 25.714844 135.65625 25.90625 136.5625 25.90625 C 137.300781 25.90625 137.984375 25.777344 138.609375 25.515625 C 139.234375 25.246094 139.769531 24.851562 140.21875 24.328125 L 141.84375 25.984375 C 141.207031 26.734375 140.425781 27.308594 139.5 27.703125 C 138.582031 28.085938 137.601562 28.28125 136.5625 28.28125 Z M 143.554688 28 " fill="#dcfce7"/>
  </g>
</svg>