<svg xmlns="http://www.w3.org/2000/svg" viewBox="0 0 120 120" width="120" height="120">
  <defs>
    <linearGradient id="bg" x1="0" y1="0" x2="1" y2="1">
      <stop offset="0%" stop-color="#34D399"/>
      <stop offset="100%" stop-color="#D4A24C"/>
    </linearGradient>
    <clipPath id="c"><circle cx="60" cy="60" r="60"/></clipPath>
  </defs>
  <circle cx="60" cy="60" r="60" fill="url(#bg)"/>
  <g clip-path="url(#c)">
    <g transform="translate(60,60) rotate(-45) scale(1.25) translate(-43.6,-27.0)">
    <!-- Back strand (semi-transparent white) -->
    <circle cx="6.24" cy="51.10" r="2.90" fill="rgba(255,255,255,0.5)"/>
    <circle cx="18.71" cy="48.07" r="3.09" fill="rgba(255,255,255,0.5)"/>
    <circle cx="31.18" cy="39.78" r="3.62" fill="rgba(255,255,255,0.5)"/>
    <circle cx="43.65" cy="28.45" r="4.35" fill="rgba(255,255,255,0.5)"/>
    <circle cx="56.12" cy="35.43" r="3.62" fill="rgba(255,255,255,0.5)"/>
    <circle cx="68.59" cy="42.66" r="3.09" fill="rgba(255,255,255,0.5)"/>
    <circle cx="81.06" cy="45.30" r="2.90" fill="rgba(255,255,255,0.5)"/>
    <!-- Front strand (solid white) -->
    <circle cx="6.24" cy="5.80" r="5.80" fill="#ffffff"/>
    <circle cx="18.71" cy="8.45" r="5.60" fill="#ffffff"/>
    <circle cx="31.18" cy="15.67" r="5.07" fill="#ffffff"/>
    <circle cx="43.65" cy="25.55" r="4.35" fill="#ffffff"/>
    <circle cx="56.12" cy="17.12" r="5.07" fill="#ffffff"/>
    <circle cx="68.59" cy="8.83" r="5.60" fill="#ffffff"/>
    <circle cx="81.06" cy="5.80" r="5.80" fill="#ffffff"/>
    </g>
  </g>
</svg>