<?xml version="1.0" encoding="UTF-8"?>
<svg id="Camada_1" data-name="Camada 1" xmlns="http://www.w3.org/2000/svg" viewBox="0 0 500 500">
  <defs>
    <style>
      .cls-1 {
        fill: #049357;
      }

      .cls-2 {
        fill: #09c972;
      }

      .cls-3 {
        fill: #666;
      }
    </style>
  </defs>
  <g>
    <path class="cls-2" d="M82.55,243.62h29.95c11.19,0,20.27-9.07,20.27-20.27v-30.48h-29.95c-11.19,0-20.27,9.07-20.27,20.27v30.48ZM113.82,197.66h0c.9,0,1.77.36,2.41,1l10.75,10.75c.64.64,1,1.5,1,2.41,0,3.03-3.67,4.55-5.81,2.41l-10.75-10.75c-2.14-2.14-.63-5.81,2.41-5.81ZM91.49,202.6s.03-.03.05-.05c1.3-1.38,3.49-1.41,4.83-.06l27.05,27.05c1.32,1.32,1.32,3.46,0,4.78-.02.02-.03.03-.05.05-1.32,1.3-3.45,1.3-4.76-.01l-27.05-27.05c-1.29-1.29-1.31-3.36-.07-4.7ZM93.15,222.5l10.51,10.51c2.15,2.15.63,5.81-2.41,5.81-.9,0-1.77-.36-2.41-1l-10.51-10.51c-.64-.64-1-1.5-1-2.41,0-3.03,3.67-4.55,5.81-2.41Z"/>
    <path class="cls-1" d="M113.13,255.53h-49.83s-23.99,0-23.99,0c-11.19,0-20.27,9.07-20.27,20.27v31.32h31.25c11.19,0,20.27-9.07,20.27-20.27v-23.29h11.91v23.93c0,12.06-6.77,22.55-16.72,27.85h53.07c12.39,0,22.42-10.04,22.42-22.43v-54.64c-5.21,10.24-15.85,17.25-28.12,17.25ZM40.26,302.34h0c-.9,0-1.77-.36-2.41-1l-13.01-13.01c-.64-.64-1-1.5-1-2.41,0-3.03,3.67-4.55,5.81-2.41l13.02,13.01c2.14,2.14.63,5.81-2.41,5.81ZM61.66,296.8l-.05.05c-1.29,1.44-3.53,1.5-4.89.13l-27.83-27.83c-1.36-1.36-1.32-3.6.11-4.88.02-.02.03-.03.05-.05,1.35-1.19,3.38-1.16,4.65.11l27.83,27.83c1.27,1.27,1.32,3.3.12,4.64ZM65.77,274.12c0,3.03-3.67,4.55-5.81,2.41l-10.39-10.39c-2.14-2.14-.63-5.81,2.41-5.81.9,0,1.77.36,2.41,1l10.39,10.39c.64.64,1,1.5,1,2.41h0Z"/>
    <path class="cls-2" d="M38.68,243.62h.89s31.06,0,31.06,0v-31.12c0-12.06,6.77-22.55,16.72-27.85h-54.37c-12.38,0-22.43,10.04-22.43,22.43v53.8c5.21-10.24,15.85-17.25,28.12-17.25Z"/>
  </g>
  <g>
    <path class="cls-3" d="M158.47,267.38v-41.18h17.83c3.69,0,6.86.6,9.53,1.79,2.67,1.2,4.73,2.91,6.18,5.15,1.45,2.24,2.18,4.9,2.18,8s-.73,5.71-2.18,7.94c-1.45,2.24-3.51,3.95-6.18,5.15-2.67,1.2-5.84,1.79-9.53,1.79h-12.53l4.24-4.29v15.65h-9.53ZM168,252.79l-4.24-4.53h12c2.94,0,5.14-.63,6.59-1.88,1.45-1.25,2.18-3,2.18-5.24s-.73-4.04-2.18-5.29c-1.45-1.25-3.65-1.88-6.59-1.88h-12l4.24-4.53v23.36Z"/>
    <path class="cls-3" d="M209.77,267.85c-2.47,0-4.59-.42-6.35-1.26-1.76-.84-3.12-1.99-4.06-3.44-.94-1.45-1.41-3.08-1.41-4.88s.46-3.53,1.38-4.94c.92-1.41,2.38-2.52,4.38-3.32,2-.8,4.61-1.21,7.82-1.21h8.41v5.35h-7.41c-2.16,0-3.64.35-4.44,1.06-.8.71-1.21,1.59-1.21,2.65,0,1.18.46,2.11,1.38,2.79.92.69,2.19,1.03,3.79,1.03s2.9-.36,4.12-1.09c1.21-.73,2.1-1.79,2.65-3.21l1.41,4.24c-.67,2.04-1.88,3.59-3.65,4.65-1.77,1.06-4.04,1.59-6.82,1.59ZM219.42,267.38v-6.18l-.59-1.35v-11.06c0-1.96-.6-3.49-1.79-4.59-1.2-1.1-3.03-1.65-5.5-1.65-1.69,0-3.34.26-4.97.79-1.63.53-3.01,1.25-4.15,2.15l-3.29-6.41c1.73-1.21,3.8-2.16,6.24-2.82,2.43-.67,4.9-1,7.41-1,4.82,0,8.57,1.14,11.24,3.41,2.67,2.27,4,5.82,4,10.65v18.06h-8.59Z"/>
    <path class="cls-3" d="M246.95,267.85c-2.71,0-5.31-.32-7.79-.97-2.49-.65-4.46-1.46-5.91-2.44l3.06-6.59c1.45.9,3.17,1.64,5.15,2.21,1.98.57,3.93.85,5.85.85,2.12,0,3.62-.25,4.5-.76.88-.51,1.32-1.21,1.32-2.12,0-.74-.34-1.3-1.03-1.68-.69-.37-1.6-.66-2.74-.85-1.14-.2-2.38-.39-3.74-.59s-2.72-.46-4.09-.79c-1.37-.33-2.63-.83-3.77-1.5-1.14-.67-2.05-1.57-2.74-2.71-.69-1.14-1.03-2.61-1.03-4.41,0-2,.58-3.76,1.74-5.29,1.16-1.53,2.83-2.74,5.03-3.62,2.2-.88,4.82-1.32,7.88-1.32,2.16,0,4.35.24,6.59.71s4.1,1.16,5.59,2.06l-3.06,6.53c-1.53-.9-3.07-1.52-4.62-1.85-1.55-.33-3.05-.5-4.5-.5-2.04,0-3.53.27-4.47.82-.94.55-1.41,1.26-1.41,2.12,0,.79.34,1.37,1.03,1.76.69.39,1.6.71,2.74.94,1.14.24,2.38.44,3.74.62,1.35.18,2.72.44,4.09.79,1.37.35,2.62.85,3.74,1.5,1.12.65,2.03,1.53,2.74,2.65.71,1.12,1.06,2.58,1.06,4.38,0,1.96-.59,3.7-1.76,5.21s-2.87,2.7-5.09,3.56-4.91,1.29-8.09,1.29Z"/>
    <path class="cls-3" d="M278.19,267.85c-2.71,0-5.3-.32-7.79-.97-2.49-.65-4.46-1.46-5.91-2.44l3.06-6.59c1.45.9,3.17,1.64,5.15,2.21s3.93.85,5.85.85c2.12,0,3.62-.25,4.5-.76.88-.51,1.32-1.21,1.32-2.12,0-.74-.34-1.3-1.03-1.68-.69-.37-1.6-.66-2.74-.85s-2.38-.39-3.74-.59c-1.35-.2-2.72-.46-4.09-.79-1.37-.33-2.63-.83-3.77-1.5-1.14-.67-2.05-1.57-2.74-2.71-.69-1.14-1.03-2.61-1.03-4.41,0-2,.58-3.76,1.74-5.29,1.16-1.53,2.83-2.74,5.03-3.62,2.2-.88,4.82-1.32,7.88-1.32,2.16,0,4.35.24,6.59.71,2.24.47,4.1,1.16,5.59,2.06l-3.06,6.53c-1.53-.9-3.07-1.52-4.62-1.85-1.55-.33-3.05-.5-4.5-.5-2.04,0-3.53.27-4.47.82-.94.55-1.41,1.26-1.41,2.12,0,.79.34,1.37,1.03,1.76.69.39,1.6.71,2.74.94s2.38.44,3.74.62c1.35.18,2.71.44,4.09.79,1.37.35,2.62.85,3.74,1.5,1.12.65,2.03,1.53,2.74,2.65.71,1.12,1.06,2.58,1.06,4.38,0,1.96-.59,3.7-1.76,5.21-1.18,1.51-2.87,2.7-5.09,3.56-2.22.86-4.91,1.29-8.09,1.29Z"/>
    <path class="cls-3" d="M308.54,267.85c-2.47,0-4.59-.42-6.35-1.26s-3.12-1.99-4.06-3.44-1.41-3.08-1.41-4.88.46-3.53,1.38-4.94c.92-1.41,2.38-2.52,4.38-3.32,2-.8,4.61-1.21,7.82-1.21h8.41v5.35h-7.41c-2.16,0-3.64.35-4.44,1.06-.8.71-1.21,1.59-1.21,2.65,0,1.18.46,2.11,1.38,2.79.92.69,2.19,1.03,3.79,1.03s2.9-.36,4.12-1.09c1.21-.73,2.1-1.79,2.65-3.21l1.41,4.24c-.67,2.04-1.88,3.59-3.65,4.65-1.76,1.06-4.04,1.59-6.82,1.59ZM318.19,267.38v-6.18l-.59-1.35v-11.06c0-1.96-.6-3.49-1.79-4.59-1.2-1.1-3.03-1.65-5.5-1.65-1.69,0-3.34.26-4.97.79-1.63.53-3.01,1.25-4.15,2.15l-3.29-6.41c1.73-1.21,3.8-2.16,6.24-2.82,2.43-.67,4.9-1,7.41-1,4.82,0,8.57,1.14,11.24,3.41,2.67,2.27,4,5.82,4,10.65v18.06h-8.59Z"/>
    <path class="cls-3" d="M355.61,268.09c-3.26,0-6.25-.52-8.97-1.56-2.73-1.04-5.1-2.52-7.12-4.44-2.02-1.92-3.59-4.18-4.71-6.77-1.12-2.59-1.68-5.43-1.68-8.53s.56-5.94,1.68-8.53c1.12-2.59,2.7-4.84,4.74-6.77,2.04-1.92,4.43-3.4,7.18-4.44,2.75-1.04,5.77-1.56,9.06-1.56,3.65,0,6.93.61,9.85,1.82,2.92,1.22,5.38,2.98,7.38,5.29l-6.12,5.65c-1.49-1.57-3.12-2.74-4.88-3.5-1.76-.77-3.69-1.15-5.77-1.15s-3.82.31-5.47.94c-1.65.63-3.07,1.53-4.27,2.71-1.2,1.18-2.12,2.57-2.76,4.18-.65,1.61-.97,3.39-.97,5.35s.32,3.69.97,5.29c.65,1.61,1.57,3.01,2.76,4.21,1.2,1.2,2.61,2.11,4.24,2.74s3.42.94,5.38.94,3.71-.3,5.5-.91c1.78-.61,3.52-1.64,5.21-3.09l5.41,6.88c-2.24,1.69-4.83,2.98-7.79,3.88-2.96.9-5.91,1.35-8.85,1.35ZM363.55,261.62v-15.47h8.71v16.71l-8.71-1.24Z"/>
    <path class="cls-3" d="M396.14,267.85c-3.61,0-6.78-.71-9.5-2.12-2.73-1.41-4.83-3.34-6.32-5.79-1.49-2.45-2.24-5.25-2.24-8.38s.74-5.99,2.21-8.44,3.48-4.37,6.03-5.77c2.55-1.39,5.43-2.09,8.65-2.09s5.89.66,8.38,1.97c2.49,1.31,4.46,3.2,5.91,5.65,1.45,2.45,2.18,5.38,2.18,8.79,0,.35-.02.76-.06,1.21-.04.45-.08.87-.12,1.26h-25.71v-5.35h20.88l-3.53,1.59c0-1.65-.33-3.08-1-4.29s-1.59-2.17-2.76-2.85c-1.18-.69-2.55-1.03-4.12-1.03s-2.95.34-4.15,1.03c-1.2.69-2.13,1.65-2.79,2.88s-1,2.7-1,4.38v1.41c0,1.73.38,3.25,1.15,4.56.76,1.31,1.84,2.31,3.24,3,1.39.69,3.03,1.03,4.91,1.03,1.69,0,3.17-.25,4.44-.77,1.27-.51,2.44-1.27,3.5-2.29l4.88,5.29c-1.45,1.65-3.27,2.91-5.47,3.79-2.2.88-4.73,1.32-7.59,1.32Z"/>
    <path class="cls-3" d="M436.79,235.26c2.51,0,4.75.5,6.74,1.5,1.98,1,3.54,2.53,4.68,4.59,1.14,2.06,1.71,4.7,1.71,7.91v18.12h-9.18v-16.71c0-2.55-.56-4.43-1.68-5.65-1.12-1.21-2.7-1.82-4.74-1.82-1.45,0-2.76.3-3.91.91-1.16.61-2.06,1.54-2.71,2.79-.65,1.26-.97,2.86-.97,4.82v15.65h-9.18v-31.65h8.77v8.77l-1.65-2.65c1.14-2.12,2.77-3.74,4.88-4.88,2.12-1.14,4.53-1.71,7.24-1.71Z"/>
    <path class="cls-3" d="M474.15,267.85c-3.61,0-6.78-.71-9.5-2.12-2.73-1.41-4.83-3.34-6.32-5.79-1.49-2.45-2.24-5.25-2.24-8.38s.74-5.99,2.21-8.44,3.48-4.37,6.03-5.77c2.55-1.39,5.43-2.09,8.65-2.09s5.89.66,8.38,1.97c2.49,1.31,4.46,3.2,5.91,5.65,1.45,2.45,2.18,5.38,2.18,8.79,0,.35-.02.76-.06,1.21-.04.45-.08.87-.12,1.26h-25.71v-5.35h20.88l-3.53,1.59c0-1.65-.33-3.08-1-4.29s-1.59-2.17-2.76-2.85c-1.18-.69-2.55-1.03-4.12-1.03s-2.95.34-4.15,1.03c-1.2.69-2.13,1.65-2.79,2.88s-1,2.7-1,4.38v1.41c0,1.73.38,3.25,1.15,4.56.76,1.31,1.84,2.31,3.24,3,1.39.69,3.03,1.03,4.91,1.03,1.69,0,3.17-.25,4.44-.77,1.27-.51,2.44-1.27,3.5-2.29l4.88,5.29c-1.45,1.65-3.28,2.91-5.47,3.79-2.2.88-4.73,1.32-7.59,1.32Z"/>
  </g>
</svg>